<?xml version="1.0" standalone="no"?>
<svg viewBox="0 0 200 200" xmlns="http://www.w3.org/2000/svg">
  <path fill="#0F62FE" d="M33,-55.2C41.2,-46.1,45.3,-34.3,48.4,-23.3C51.4,-12.4,53.5,-2.2,53.7,8.9C54,20,52.5,32.1,46.2,40.9C39.9,49.6,28.8,55,16.4,61C4,67,-9.8,73.6,-25,74.2C-40.3,74.8,-57,69.3,-65.5,57.7C-74.1,46.1,-74.4,28.5,-71.7,13.4C-69,-1.6,-63.3,-13.9,-58.5,-27.8C-53.8,-41.6,-50.2,-57,-40.6,-65.5C-31,-74.1,-15.5,-75.8,-1.6,-73.4C12.4,-70.9,24.8,-64.4,33,-55.2Z" transform="translate(100 100)" />
</svg>
