<svg width="51" height="50" viewBox="0 0 51 50" fill="none" xmlns="http://www.w3.org/2000/svg">
<circle cx="25.8047" cy="25" r="24.5" fill="white" stroke="#0F62FE"/>
<path d="M38.3047 25.7923C38.3047 32.9244 33.3405 38 26.0096 38C18.9809 38 13.3047 32.4153 13.3047 25.5C13.3047 18.5847 18.9809 13 26.0096 13C29.4317 13 32.3108 14.2349 34.5291 16.2712L31.0711 19.5423C26.5475 15.248 18.1356 18.4738 18.1356 25.5C18.1356 29.8599 21.6756 33.3931 26.0096 33.3931C31.0403 33.3931 32.9256 29.8448 33.2227 28.005H26.0096V23.7056H38.1049C38.2227 24.3458 38.3047 24.9607 38.3047 25.7923Z" fill="#0F62FE"/>
</svg>
