<svg xmlns="http://www.w3.org/2000/svg" version="1.1" xmlns:xlink="http://www.w3.org/1999/xlink" xmlns:svgjs="http://svgjs.dev/svgjs" width="2000" height="368" viewBox="0 0 2000 368"><g transform="matrix(1,0,0,1,-1.2121212121212466,-0.4327753191995214)"><svg viewBox="0 0 396 73" data-background-color="#ffffff" preserveAspectRatio="xMidYMid meet" height="368" width="2000" xmlns="http://www.w3.org/2000/svg" xmlns:xlink="http://www.w3.org/1999/xlink"><g id="tight-bounds" transform="matrix(1,0,0,1,0.2400000000000091,0.08584945190642657)"><svg viewBox="0 0 395.52 72.82830109618718" height="72.82830109618718" width="395.52"><g><svg viewBox="0 0 625.5017842987345 115.17554683229814" height="72.82830109618718" width="395.52"><g><rect width="10.334974800498486" height="115.17554683229814" x="192.591901643528" y="0" fill="#000000" opacity="1" stroke-width="0" stroke="transparent" fill-opacity="1" class="rect-qz-0" data-fill-palette-color="primary" rx="1%" id="qz-0" data-palette-color="#000000"></rect></g><g transform="matrix(1,0,0,1,229.98178429873457,0.28650633540372183)"><svg viewBox="0 0 395.52 114.6025341614907" height="114.6025341614907" width="395.52"><g id="textblocktransform"><svg viewBox="0 0 395.52 114.6025341614907" height="114.6025341614907" width="395.52" id="textblock"><g><svg viewBox="0 0 395.52 114.6025341614907" height="114.6025341614907" width="395.52"><g transform="matrix(1,0,0,1,0,0)"><svg width="395.52" viewBox="3.75 -35.7 160.99 46.650000000000006" height="114.6025341614907" data-palette-color="#000000"><path d="M3.75 0L3.75-35 8.6-35 19.55-9.4 19.65-9.4 30.65-35 35.5-35 35.5 0 30.9 0 30.9-25.55 30.8-25.55 21.3-3.95 17.9-3.95 8.45-25.55 8.35-25.55 8.35 0 3.75 0ZM59.95-24.9L64.6-24.9 64.6 6.15 59.75 10.95 47.35 10.95 43.25 6.85 43.25 3.7 47.9 3.7 47.9 5.45 49.4 6.9 57.7 6.9 59.95 4.7 59.95-4.75 55.15 0 47.35 0 42.5-4.85 42.5-24.9 47.15-24.9 47.15-6.3 49.4-4.05 54.2-4.05 59.95-9.9 59.95-24.9ZM71.84 0L71.84-35 92.25-35 97-30.25 97-20.55 94.75-18.25 98.55-14.4 98.55-5.05 93.5 0 71.84 0ZM76.55-19.6L90.05-19.6 92.3-21.85 92.3-28.7 90.05-30.9 76.55-30.9 76.55-19.6ZM76.55-4.1L91.19-4.1 93.84-6.7 93.84-13 91.19-15.65 76.55-15.65 76.55-4.1ZM105.79-28.65L104.04-30.45 104.04-32.95 105.79-34.75 108.44-34.75 110.19-32.95 110.19-30.45 108.44-28.65 105.79-28.65ZM104.79 0L104.79-24.9 109.44-24.9 109.44 0 104.79 0ZM116.94 0L116.94-35.7 121.59-35.7 121.59-15 126.94-15 133.94-24.9 139.09-24.9 130.74-12.9 139.59 0 134.44 0 126.89-10.9 121.59-10.9 121.59 0 116.94 0ZM146.84 0L142.09-4.75 142.09-20.1 146.89-24.9 159.94-24.9 164.74-20.1 164.74-11 146.74-11 146.74-6.2 148.94-4 157.89-4 160.09-6.15 160.09-7.85 164.69-7.85 164.69-4.75 159.99 0 146.84 0ZM146.74-14.65L160.09-14.65 160.09-18.7 157.84-20.9 148.99-20.9 146.74-18.7 146.74-14.65Z" opacity="1" transform="matrix(1,0,0,1,0,0)" fill="#000000" class="wordmark-text-0" data-fill-palette-color="primary" id="text-0"></path></svg></g></svg></g></svg></g></svg></g><g transform="matrix(1,0,0,1,0,0.28650633540372183)"><svg viewBox="0 0 165.5369937888199 114.6025341614907" height="114.6025341614907" width="165.5369937888199"><g><svg xmlns="http://www.w3.org/2000/svg" xmlns:xlink="http://www.w3.org/1999/xlink" version="1.1" x="0" y="0" viewBox="0 0 26 18" style="enable-background:new 0 0 26 18;" xml:space="preserve" height="114.6025341614907" width="165.5369937888199" class="icon-icon-0" data-fill-palette-color="accent" id="icon-0"><g fill="#3375d8" data-fill-palette-color="accent"><path d="M4.5 9C2.015 9 0 11.015 0 13.5S2.015 18 4.5 18c2.314 0 4.197-1.753 4.449-4h5.337l4.687-7.967 0.885 3.287C18.186 9.977 17 11.596 17 13.5c0 2.485 2.015 4.5 4.5 4.5 2.485 0 4.5-2.015 4.5-4.5S23.985 9 21.5 9c-0.231 0-0.453 0.034-0.676 0.068L18.383 0H13v1h4.617l0.566 2.105-6.526 3.73L9.768 4H1v3h6.21l3.429 6H8.949C8.697 10.753 6.814 9 4.5 9zM7.949 14c-0.245 1.691-1.69 3-3.449 3C2.57 17 1 15.43 1 13.5S2.57 10 4.5 10c1.759 0 3.204 1.309 3.449 3H4v1H7.949zM21.018 13.63l0.965-0.26-0.896-3.328C21.224 10.025 21.358 10 21.5 10c1.93 0 3.5 1.57 3.5 3.5S23.43 17 21.5 17c-1.93 0-3.5-1.57-3.5-3.5 0-1.439 0.874-2.676 2.117-3.213L21.018 13.63z" fill="#3375d8" data-fill-palette-color="accent"></path><path d="M22.5 5V1c-1.105 0-2 0.895-2 2S21.395 5 22.5 5z" fill="#3375d8" data-fill-palette-color="accent"></path></g></svg></g></svg></g></svg></g><defs></defs></svg><rect width="395.52" height="72.82830109618718" fill="none" stroke="none" visibility="hidden"></rect></g></svg></g></svg>
